<?xml version="1.0" encoding="UTF-8"?>
<svg width="176px" height="32px" viewBox="0 0 176 32" version="1.1" xmlns="http://www.w3.org/2000/svg" xmlns:xlink="http://www.w3.org/1999/xlink">
    <title>深色横版AD</title>
    <defs>
        <linearGradient x1="40.8905361%" y1="93.4068786%" x2="58.3767003%" y2="31.3679816%" id="linearGradient-1">
            <stop stop-color="#FFAA00" offset="0%"></stop>
            <stop stop-color="#FFA700" offset="41%"></stop>
            <stop stop-color="#FF9C00" offset="75%"></stop>
            <stop stop-color="#FF9500" offset="90%"></stop>
        </linearGradient>
    </defs>
    <g id="控件" stroke="none" stroke-width="1" fill="none" fill-rule="evenodd">
        <g id="Tab" transform="translate(-16.000000, -8.000000)" fill-rule="nonzero">
            <g id="深色横版AD" transform="translate(16.000000, 8.000000)">
                <g id="编组-12" transform="translate(56.358320, 3.766716)" fill="#FFFFFF">
                    <path d="M8.66440086,0 C8.61229536,0.12629702 1.41429224,18.0753324 0,21.6190782 L4.33220043,21.6190782 L10.8305011,5.40105493 L14.4034499,14.3161387 C13.2729343,13.9662016 12.0960183,13.7883779 10.9123812,13.7886629 C9.69461658,13.7862078 8.48398742,13.9742191 7.32454506,14.3458557 C8.91895322,14.6568342 10.4364934,15.2778214 11.7907311,16.1734478 C13.9379797,17.4248283 15.7789635,19.1378932 17.1799289,21.1881825 L17.3585763,21.6190782 L21.6907767,21.6190782 C20.2020481,17.8598845 13.2199106,0.490329608 13.0263759,0 L8.66440086,0 Z" id="路径"></path>
                    <path d="M31.9481173,7.04291619 C30.0304567,6.97427754 28.2383453,7.99225114 27.3181711,9.6728659 L27.2735092,9.6728659 L27.2735092,7.38466107 L23.4921384,7.38466107 L23.4921384,21.6190782 L27.2735092,21.6190782 L27.2735092,13.5063519 C27.2378978,12.5904546 27.5368068,11.6928229 28.1146409,10.9804115 C28.6369909,10.3278359 29.4368268,9.95897182 30.2732975,9.98489384 C32.0448846,9.98489384 32.9232345,11.2032886 32.9232345,13.6400782 L32.9232345,21.6190782 L36.6971617,21.6190782 L36.6971617,12.912013 C36.6971617,8.99928177 35.1141469,7.04291619 31.9481173,7.04291619 Z" id="路径"></path>
                    <path d="M46.4706654,16.6637774 C46.2930728,17.1974973 46.156215,17.7438689 46.0612651,18.2982095 L46.0091596,18.2982095 C45.852843,17.4884227 45.7337448,16.93123 45.644421,16.6340605 L42.6669637,7.30293947 L38.4687488,7.30293947 L44.2003542,21.5076396 L43.3294479,23.5432504 C42.9935922,24.5927008 42.0064082,25.2968993 40.9028202,25.2742625 C40.2878501,25.2807484 39.6811462,25.1325597 39.1386767,24.8433668 L39.1386767,27.9190707 C39.8812539,28.1447811 40.6553033,28.250129 41.4313189,28.2310986 C44.0465189,28.2310986 46.0314905,26.4976102 47.3862336,23.0306331 L53.4006974,7.31779794 L49.6267702,7.31779794 L46.4706654,16.6637774 Z" id="路径"></path>
                    <path d="M61.3505085,1.44870111 L55.8198815,1.44870111 L55.8198815,21.581932 L61.5663742,21.581932 C67.5212888,21.581932 71.3324342,18.2090586 71.3324342,11.433595 C71.3324342,4.65813128 67.5138452,1.44870111 61.3505085,1.44870111 Z M61.1048683,18.3427849 L59.8543362,18.3427849 L59.8543362,4.65813128 L61.1048683,4.65813128 C64.8713518,4.65813128 67.2160995,6.50801116 67.2160995,11.433595 C67.2160995,16.3591787 64.8787955,18.3427849 61.1048683,18.3427849 Z" id="形状"></path>
                    <polygon id="路径" points="103.31777 1.6492905 88.2443919 1.6492905 88.2443919 4.92558379 93.7824626 4.92558379 93.7824626 21.3219087 97.7275936 21.3219087 97.7275936 4.92558379 103.31777 4.92558379"></polygon>
                    <path d="M82.1852662,1.65671974 L78.2773535,1.65671974 L71.9130384,21.3219087 L75.8358385,21.3219087 L77.4808836,16.240311 L83.6293331,16.240311 L85.2743782,21.3219087 L89.1971783,21.3219087 L82.8328632,1.65671974 L82.1852662,1.65671974 Z M78.4634446,13.2166117 L80.562552,6.73831749 L82.6616594,13.2166117 L78.4634446,13.2166117 Z" id="形状"></path>
                    <path d="M115.71888,21.3219087 L119.64168,21.3219087 L113.277365,1.65671974 L108.721855,1.65671974 L102.35754,21.3219087 L106.28034,21.3219087 L107.925385,16.240311 L114.073834,16.240311 L115.71888,21.3219087 Z M108.900502,13.2166117 L110.99961,6.73831749 L113.091273,13.2166117 L108.900502,13.2166117 Z" id="形状"></path>
                </g>
                <g id="编组-11">
                    <path d="M11.2051797,1.14419499 L10.5873573,1.14419499 L0.0248273939,26.2624435 C-0.0174872581,26.365943 -0.00517306814,26.4837017 0.0576425683,26.5762501 C0.120458205,26.6687985 0.225462373,26.7238888 0.337460415,26.7230746 L6.21049502,26.7230746 C6.3469222,26.7220718 6.46974566,26.640348 6.52312804,26.5150376 L14.078426,8.37284209 C14.1083216,8.29640557 14.1083216,8.21154304 14.078426,8.13510652 L13.9891023,7.88994172 L11.2051797,1.14419499 Z" id="路径" fill="url(#linearGradient-1)"></path>
                    <path d="M48.2894109,4.2421866 L43.5254791,0.676153086 L43.5254791,0.676153086 C43.469751,0.622189541 43.3946856,0.592756642 43.3170571,0.594301208 C43.1971746,0.597696404 43.0886664,0.666095201 43.0341987,0.772733163 C43.0222227,0.819025895 43.0222227,0.867595917 43.0341987,0.913888656 L40.6745637,18.5211791 C40.6745637,18.8658357 40.9545049,19.145235 41.2998298,19.145235 L48.0735452,19.7767201 C48.4229812,19.7767201 48.7062566,19.4939946 48.7062566,19.145235 L48.7062566,5.02968567 C48.706674,4.71445478 48.5505488,4.41950385 48.2894109,4.2421866 Z" id="路径" fill="#3E75FF"></path>
                    <path d="M23.0480163,5.66860001 L40.168396,7.54085424 C40.3355128,7.54275336 40.4964706,7.47788253 40.6153457,7.36063341 C40.7342207,7.24338431 40.8011175,7.08351691 40.8011057,6.91671174 L41.5901319,0.624148431 C41.5860548,0.278293592 41.3039717,9.25660686e-05 40.9574222,9.25660686e-05 L22.7130523,9.25660686e-05 C22.5309702,0.00413199664 22.385532,0.152633588 22.385532,0.334408208 L22.4450812,5.02225643 C22.4478643,5.36109727 22.7095819,5.64165723 23.0480163,5.66860001 L23.0480163,5.66860001 Z" id="路径" fill="#3E75FF"></path>
                    <path d="M29.0029309,7.7042108 L23.0480163,7.0727257 C22.6985804,7.0727257 22.4153066,7.35545121 22.4153066,7.7042108 L22.4153066,13.2538505 L16.9293414,0.200681951 C16.8752613,0.0769569351 16.7519372,-0.00216938529 16.6167084,1.15473532e-15 L10.5948009,1.15473532e-15 C10.4828029,-0.000740043755 10.3777987,0.0543502532 10.3149831,0.146898627 C10.2521675,0.239447 10.2398533,0.357205755 10.2821679,0.460705228 L21.0531198,26.5150376 C21.1065022,26.640348 21.2293257,26.7220718 21.3657529,26.7230562 L27.5737514,26.7230562 C28.0799192,26.7230562 28.02037,26.151005 28.0501446,26.0767126 C28.0799192,26.0024203 29.6579716,8.32826667 29.6579716,8.32826667 C29.6560727,8.15814495 29.5854766,7.995985 29.4621718,7.8785128 C29.3388671,7.76104067 29.1732865,7.69819557 29.0029309,7.7042108 L29.0029309,7.7042108 Z" id="路径" fill="#3E75FF"></path>
                    <path d="M48.5127202,21.0991242 C48.4692756,21.0844058 48.4221791,21.0844058 48.3787346,21.0991242 L30.5735397,19.6875693 C30.2270142,19.6916384 29.9482497,19.9731756 29.9482737,20.3190544 L29.4718805,26.1361465 C29.4759575,26.4820013 29.7580407,26.7602024 30.1045902,26.7602024 L44.2475125,26.7602024 C44.540848,26.7550215 44.8154356,26.6152529 44.9918769,26.3813113 L48.5648257,21.6266 L48.5648257,21.6266 C48.6163239,21.5693619 48.6453978,21.4954988 48.6467058,21.4185814 C48.6707845,21.2948608 48.6179254,21.1688306 48.5127202,21.0991242 L48.5127202,21.0991242 Z" id="路径" fill="#3E75FF"></path>
                </g>
            </g>
        </g>
    </g>
</svg>