<?xml version="1.0" encoding="UTF-8"?>
<svg width="16px" height="16px" viewBox="0 0 16 16" version="1.1" xmlns="http://www.w3.org/2000/svg" xmlns:xlink="http://www.w3.org/1999/xlink">
    <title>dianzan</title>
    <g id="页面-1" stroke="none" stroke-width="1" fill="none" fill-rule="evenodd">
        <g id="智能问答-回答" transform="translate(-926.000000, -493.000000)" fill="#000000" fill-rule="nonzero">
            <g id="编组-14" transform="translate(296.000000, 442.000000)">
                <g id="dianzan" transform="translate(630.000000, 51.000000)">
                    <path d="M1.93649936,7.05295829 C2.20660135,7.05295829 2.42523529,6.83384601 2.42523529,6.56424151 C2.42523529,6.29415867 2.20660135,6.07502726 1.93649936,6.07502726 C1.93142909,6.07502726 1.9273346,6.0778207 1.92272354,6.0778207 L0.754207704,6.08055674 C0.727555286,6.07690233 0.699984493,6.07502726 0.672432827,6.07502726 C0.304522437,6.07502726 0.00640959656,6.37683281 0.00640959656,6.75027266 L0,14.8523371 C0,15.2253369 0.298552901,15.5179202 0.666941606,15.5179202 C0.702777912,15.5179202 0.738155012,15.5233923 0.772575463,15.5179202 L1.91353965,15.5183412 C1.91539557,15.5183412 1.91631394,15.5192404 1.91816986,15.5192404 C1.9199875,15.5192404 1.9209059,15.5183412 1.92274267,15.5183412 L1.93651849,15.5183412 L1.93651849,15.5155669 C2.18731518,15.5054646 2.38851886,15.3020032 2.38851886,15.0488723 C2.38851886,14.7953396 2.1873343,14.5918782 1.93651849,14.5817759 L1.93651849,14.5744097 L0.983900558,14.5744097 L1.01101216,7.05292003 L1.93649936,7.05292001 L1.93649936,7.05295829 Z" id="路径"></path>
                    <path d="M15.703894,6.35249548 C15.3433498,5.76455444 14.8187776,5.52659607 14.1839987,5.5009003 C14.1508985,5.49628922 14.1178748,5.49355318 14.0833969,5.49355318 L10.2420826,5.48067661 C10.4937977,4.75036616 10.666493,3.8803841 10.666493,3.06278844 C10.666493,2.53272502 10.6067786,2.01643745 10.4974329,1.51945516 L10.4882682,1.52037355 C10.2893605,0.649473077 9.52093688,0 8.60046255,0 C7.52977425,0 6.81549734,0.90028891 6.81549734,1.98427472 C6.81549734,2.04488838 6.80998701,2.10370353 6.81549734,2.16249955 C6.75947562,4.18903928 5.10955185,5.81873938 3.14640007,6.04244358 L3.14640007,7.06859003 L3.13170585,11.2236489 L3.13170585,15.5192596 L3.33195289,15.5192596 L12.6810937,15.5234114 L12.8446243,15.5188578 C13.206546,15.5197761 13.4100265,15.4287791 13.7384271,15.2175306 C14.050354,15.0163269 14.2850789,14.7407337 14.4394065,14.4293234 C14.4816715,14.3668538 14.5147335,14.2970371 14.5348806,14.2198924 L15.9749143,7.78194854 C15.9946597,7.70616232 16.0001318,7.6289794 15.9946597,7.55457077 C16.0240099,7.14709313 15.9331085,6.72637539 15.703894,6.35249548 Z M15.0925531,7.34138978 L13.5409735,14.21796 L13.5391176,14.2170416 C13.4913422,14.3318785 13.4104857,14.4338579 13.2984423,14.5054922 C13.220341,14.5564819 13.1343951,14.5868462 13.0476265,14.5983069 C13.0196156,14.5946525 12.9906672,14.5983069 12.9612406,14.5983069 L4.04207792,14.5882046 L4.03886356,6.97074333 C5.70897277,6.21787495 6.93398865,5.48111667 7.56511311,3.72374138 C7.56647157,3.72420057 7.56744734,3.72465978 7.56876753,3.72509984 C7.62484663,3.55426038 7.68681875,3.33742496 7.73137974,3.10501518 C7.83517681,2.55932002 7.82970475,2.01825507 7.82970475,2.01825507 C7.73738755,1.30813004 8.31472884,1.02794492 8.65920119,1.02794492 C9.1323245,1.04403587 9.59899995,1.6572326 9.59899995,2.006316 C9.59899995,2.006316 9.70371541,2.5216852 9.7046338,3.07562672 C9.70553305,3.77427189 9.61736772,4.13852785 9.61736772,4.13852785 L9.60864302,4.13852785 C9.49883816,4.71588829 9.30547904,5.26296103 9.03903149,5.76453525 L9.0459194,5.77094485 C9.0018176,5.86098522 8.97656191,5.96204625 8.97656191,6.06903856 C8.97656191,6.44154089 9.33347077,6.47555955 9.70138116,6.47555955 L14.1655927,6.48061069 C14.1655927,6.48061069 14.4398083,6.48931625 14.4402675,6.48931625 L14.4402675,6.49119129 C14.6671095,6.47925224 14.893148,6.58855964 15.0217607,6.79800969 C15.1246776,6.96659144 15.142127,7.16456162 15.0869471,7.34001216 L15.0925531,7.34138978 Z" id="形状"></path>
                    <path d="M3.37244271,15.5651461 C3.40436991,15.567602 3.41654721,15.567602 3.40201621,15.5626902 C3.42637091,15.5578807 3.43875291,15.5552201 3.37244271,15.5552201 C3.30613251,15.5552201 3.31851451,15.5578807 3.34532511,15.5626902 C3.33314781,15.567602 3.34297151,15.567602 3.37244271,15.5651461 Z" id="路径"></path>
                </g>
            </g>
        </g>
    </g>
</svg>