<?xml version="1.0" encoding="UTF-8"?>
<svg width="48px" height="48px" viewBox="0 0 48 48" version="1.1" xmlns="http://www.w3.org/2000/svg" xmlns:xlink="http://www.w3.org/1999/xlink">
    <title>guzhangjilu</title>
    <g id="页面-1" stroke="none" stroke-width="1" fill="none" fill-rule="evenodd">
        <g id="归因分析" transform="translate(-288.000000, -373.000000)" fill-rule="nonzero">
            <g id="guzhangjilu" transform="translate(288.000000, 373.000000)">
                <path d="M0,24 C0,37.254834 10.745166,48 24,48 C37.254834,48 48,37.254834 48,24 C48,10.745166 37.254834,0 24,0 C10.745166,0 0,10.745166 0,24 Z" id="路径" fill="#DAF9F4"></path>
                <path d="M14.2,10 L34.4666667,10 C36.0666667,10 37.3333333,11.2666667 37.3333333,12.8666667 L37.3333333,35.1333333 C37.3333333,36.7333333 36.0666667,38 34.4666667,38 L14.2,38 C12.6,38 11.3333333,36.7333333 11.3333333,35.1333333 L11.3333333,12.8666667 C11.3333333,11.2666667 12.6,10 14.2,10 Z" id="路径" fill="#2BC3AD"></path>
                <path d="M16,30 L27.3333333,30 C28.0666667,30 28.6666667,30.6 28.6666667,31.3333333 C28.6666667,32.0666667 28.0666667,32.6666667 27.3333333,32.6666667 L16,32.6666667 C15.2666667,32.6666667 14.6666667,32.0666667 14.6666667,31.3333333 C14.6666667,30.6 15.2666667,30 16,30 Z M16,15.3333333 L27.3333333,15.3333333 C28.0666667,15.3333333 28.6666667,15.9333333 28.6666667,16.6666667 C28.6666667,17.4 28.0666667,18 27.3333333,18 L16,18 C15.2666667,18 14.6666667,17.4 14.6666667,16.6666667 C14.6666667,15.9333333 15.2666667,15.3333333 16,15.3333333 Z M16,22.6666667 L27.3333333,22.6666667 C28.0666667,22.6666667 28.6666667,23.2666667 28.6666667,24 C28.6666667,24.7333333 28.0666667,25.3333333 27.3333333,25.3333333 L16,25.3333333 C15.2666667,25.3333333 14.6666667,24.7333333 14.6666667,24 C14.6666667,23.2666667 15.2666667,22.6666667 16,22.6666667 Z" id="形状" fill="#A5ECE2"></path>
                <path d="M25,38.9333333 L32.7333333,25.9333333 C32.9333333,25.6 33.3333333,25.5333333 33.6666667,25.7333333 C33.7333333,25.8 33.8666667,25.8666667 33.8666667,25.9333333 L41.6,38.9333333 C41.8,39.2666667 41.6666667,39.6666667 41.4,39.8666667 C41.2666667,39.9333333 41.2,39.9333333 41.0666667,39.9333333 L25.5333333,39.9333333 C25.1333333,39.9333333 24.8666667,39.6666667 24.8666667,39.2666667 C24.8666667,39.1333333 24.9333333,39.0666667 25,38.9333333 Z" id="路径" fill="#2BC3AD"></path>
                <path d="M33.3333333,29.3333333 C34,29.3333333 34.5333333,29.8666667 34.5333333,30.5333333 L34.5333333,30.6666667 L33.8666667,35.6 C33.8,35.8666667 33.6,36.0666667 33.3333333,36.0666667 C33.0666667,36.0666667 32.8666667,35.8666667 32.8,35.6 L32.1333333,30.6666667 C32.0666667,30 32.4666667,29.4666667 33.1333333,29.3333333 L33.3333333,29.3333333 L33.3333333,29.3333333 Z" id="路径" fill="#A5ECE2"></path>
                <path d="M32.6666667,37.3333333 C32.6666667,37.7015232 32.9651435,38 33.3333333,38 C33.7015232,38 34,37.7015232 34,37.3333333 C34,36.9651435 33.7015232,36.6666667 33.3333333,36.6666667 C32.9651435,36.6666667 32.6666667,36.9651435 32.6666667,37.3333333 Z" id="路径" fill="#A5ECE2"></path>
            </g>
        </g>
    </g>
</svg>