<?xml version="1.0" standalone="no"?><!DOCTYPE svg PUBLIC "-//W3C//DTD SVG 1.1//EN" "http://www.w3.org/Graphics/SVG/1.1/DTD/svg11.dtd"><svg t="1638952583673" class="icon" viewBox="0 0 1024 1024" version="1.1" xmlns="http://www.w3.org/2000/svg" p-id="3652" xmlns:xlink="http://www.w3.org/1999/xlink" width="48" height="48"><defs><style type="text/css"></style></defs><path d="M901.88446821 914.08785137c0 14.81560992-11.61855738 26.78506354-26.00529452 26.78506354a26.39517838 26.39517838 0 0 1-25.96630563-26.78506354c0.11696541-98.17290858-40.00214654-191.82315872-110.49325844-257.75262196a27.40887823 27.40887823 0 0 1-1.71549105-37.89677035 25.45945635 25.45945635 0 0 1 36.72711617-1.79346755c81.29091136 76.14443692 127.6091865 184.18142291 127.45323347 297.44285986M512 512c100.47322671 0 181.95908129-83.98111465 181.95908129-187.6124063 0-103.63129167-81.48585329-187.6124063-181.95908129-187.61240502s-181.95908129 83.98111465-181.95908129 187.61240502C330.04091871 428.01888535 411.52677329 512 512 512m-120.08441613 19.494224c-110.92213121-68.34674681-147.10340919-216.46385585-80.82304969-330.81697175 66.2803595-114.39210221 209.8748088-151.66505785 320.79694002-83.35729866 110.8831423 68.3077592 147.10340919 216.42486823 80.82304969 330.81697044-42.22448815 72.83041894-118.40791268 117.43320174-200.71252389 117.47219065-186.59870646 0-337.91286806 156.03176459-337.91286806 348.47873669 0 14.81560992-11.61855738 26.78506354-26.00529453 26.78506354A26.39517838 26.39517838 0 0 1 122.11553179 914.08785137c0-174.3563344 108.97270933-328.86754857 269.80005208-382.59362737" fill="#555555" p-id="3653"></path></svg>