<?xml version="1.0" encoding="UTF-8"?>
<svg width="36px" height="36px" viewBox="0 0 36 36" version="1.1" xmlns="http://www.w3.org/2000/svg" xmlns:xlink="http://www.w3.org/1999/xlink">
    <title>jiqiren-2</title>
    <g id="页面-1" stroke="none" stroke-width="1" fill="none" fill-rule="evenodd">
        <g id="智能机器人有图" transform="translate(-110.000000, -70.000000)" fill-rule="nonzero">
            <g id="jiqiren-2" transform="translate(110.000000, 70.000000)">
                <path d="M0,18 C0,27.9411255 8.0588745,36 18,36 C27.9411255,36 36,27.9411255 36,18 C36,8.0588745 27.9411255,0 18,0 C8.0588745,0 0,8.0588745 0,18 Z" id="路径" fill="#126EE3"></path>
                <path d="M24.4285714,28.2857143 L11.5714286,28.2857143 C10.4352999,28.2857143 9.5142857,27.3647001 9.5142857,26.2285714 L9.5142857,17.4857143 C9.5142857,16.3495857 10.4352999,15.4285714 11.5714286,15.4285714 L17.2285714,15.4285714 L17.2285714,13.4948571 C16.1658926,13.1191434 15.5284415,12.0324861 15.7190433,10.9215774 C15.9096451,9.81066867 16.8728589,8.99864195 18,8.99864195 C19.1271411,8.99864195 20.0903549,9.81066867 20.2809567,10.9215774 C20.4715585,12.0324861 19.8341074,13.1191434 18.7714286,13.4948571 L18.7714286,15.4285714 L24.4285714,15.4285714 C25.5647001,15.4285714 26.4857143,16.3495857 26.4857143,17.4857143 L26.4857143,26.2285714 C26.4857143,27.3647001 25.5647001,28.2857143 24.4285714,28.2857143 L24.4285714,28.2857143 Z M22.086,11.8002857 L21.5717143,11.8002857 C21.2876822,11.8002857 21.0574286,11.5700321 21.0574286,11.286 C21.0574286,11.0019679 21.2876822,10.7717143 21.5717143,10.7717143 L22.086,10.7717143 C22.3700321,10.7717143 22.6002857,11.0019679 22.6002857,11.286 C22.6002857,11.5700321 22.3700321,11.8002857 22.086,11.8002857 Z M21.3505714,12.6282857 L21.7954286,12.8854286 C21.9628173,12.9729924 22.0687261,13.1452773 22.0712828,13.3341685 C22.0738394,13.5230596 21.9726324,13.6981478 21.8076749,13.79021 C21.6427175,13.8822722 21.4405658,13.8764875 21.2811429,13.7751429 L20.8362857,13.518 C20.6688971,13.4304361 20.5629883,13.2581512 20.5604317,13.0692601 C20.5578751,12.880369 20.6590821,12.7052808 20.8240395,12.6132187 C20.9889969,12.5211565 21.1911485,12.5269412 21.3505714,12.6282857 Z M21.7954286,9.68914287 L21.3505714,9.9462857 C21.104889,10.0810693 20.7965302,9.99470522 20.6565961,9.75191951 C20.516662,9.50913379 20.5965047,9.19902248 20.8362857,9.054 L21.2811429,8.79685713 C21.4408124,8.70028719 21.6402261,8.69763048 21.8024117,8.78991249 C21.9645972,8.88219449 22.0641857,9.05498049 22.0627366,9.24157638 C22.0612876,9.42817227 21.9590277,9.59939078 21.7954286,9.68914287 L21.7954286,9.68914287 Z M20.232,8.4497143 C20.0869775,8.68949534 19.7768662,8.76933805 19.5340805,8.62940391 C19.2912948,8.48946977 19.2049307,8.18111099 19.3397143,7.93542857 L19.5968571,7.49057143 C19.7418795,7.2507902 20.051991,7.17094735 20.2947768,7.31088153 C20.5375626,7.45081572 20.6239266,7.75917468 20.4891429,8.00485713 L20.232,8.4497143 Z M18,8.22857143 C17.7163195,8.22772419 17.4865615,7.99796618 17.4857143,7.7142857 L17.4857143,7.2 C17.4857143,6.91596785 17.7159679,6.6857143 18,6.6857143 C18.2840321,6.6857143 18.5142857,6.91596785 18.5142857,7.2 L18.5142857,7.7142857 C18.5134385,7.99796618 18.2836805,8.22772419 18,8.22857143 L18,8.22857143 Z M16.47,8.63742857 C16.352183,8.70634378 16.2116989,8.72528086 16.0798393,8.69002172 C15.9479798,8.65476257 15.8356966,8.5682357 15.768,8.4497143 L15.5108571,8.00485713 C15.3760734,7.75917468 15.4624374,7.45081572 15.7052232,7.31088153 C15.948009,7.17094735 16.2581205,7.2507902 16.4031429,7.49057143 L16.6602857,7.93542857 C16.7281476,8.05375202 16.7462241,8.19418797 16.7105382,8.32583977 C16.6748524,8.45749157 16.5883277,8.56957408 16.47,8.63742857 L16.47,8.63742857 Z M15.1637143,13.518 L14.7188571,13.7751429 C14.5594342,13.8764875 14.3572825,13.8822722 14.1923251,13.79021 C14.0273676,13.6981478 13.9261606,13.5230596 13.9287172,13.3341685 C13.9312739,13.1452773 14.0371827,12.9729924 14.2045714,12.8854286 L14.6494286,12.6282857 C14.8936374,12.5005358 15.1951408,12.5880044 15.3330656,12.8266144 C15.4709905,13.0652244 15.3963017,13.3701451 15.1637143,13.518 Z M14.6494286,9.9462857 L14.2045714,9.68914287 C14.0409723,9.59939078 13.9387124,9.42817227 13.9372634,9.24157638 C13.9358143,9.05498049 14.0354028,8.88219449 14.1975883,8.78991249 C14.3597739,8.69763048 14.5591876,8.70028719 14.7188571,8.79685713 L15.1637143,9.054 C15.4034953,9.19902248 15.483338,9.50913379 15.3434039,9.75191951 C15.2034698,9.99470522 14.895111,10.0810693 14.6494286,9.9462857 L14.6494286,9.9462857 Z M14.9425714,11.286 C14.9425714,11.4223971 14.8883879,11.5532076 14.7919406,11.6496549 C14.6954933,11.7461022 14.5646828,11.8002857 14.4282857,11.8002857 L13.914,11.8002857 C13.6299679,11.8002857 13.3997143,11.5700321 13.3997143,11.286 C13.3997143,11.0019679 13.6299679,10.7717143 13.914,10.7717143 L14.4282857,10.7717143 C14.7119662,10.7725615 14.9417242,11.0023195 14.9425714,11.286 L14.9425714,11.286 Z" id="形状" fill="#FFFFFF"></path>
                <path d="M7.45714287,18.7714286 L8.4857143,18.7714286 L8.4857143,24.9428571 L7.45714287,24.9428571 C5.75294993,24.9428571 4.37142857,23.5613358 4.37142857,21.8571429 C4.37142857,20.1529499 5.75294992,18.7714286 7.45714287,18.7714286 Z" id="路径" fill="#FFFFFF"></path>
                <path d="M7.2,19.8 L7.45714287,19.8 L7.45714287,23.9142857 L7.2,23.9142857 C6.20588745,23.9142857 5.4,23.1083982 5.4,22.1142857 L5.4,21.6 C5.4,21.1226103 5.58964231,20.6647733 5.92720779,20.3272078 C6.26477328,19.9896423 6.72261032,19.8 7.2,19.8 Z" id="路径" fill="#8ED420"></path>
                <path d="M27.5142857,19.0285714 L28.5428571,19.0285714 C30.2470501,19.0285714 31.6285714,20.4100928 31.6285714,22.1142857 C31.6285714,22.932668 31.3034703,23.7175315 30.7247866,24.2962152 C30.146103,24.8748989 29.3612394,25.2 28.5428571,25.2 L27.5142857,25.2 L27.5142857,19.0285714 L27.5142857,19.0285714 Z" id="路径" fill="#FFFFFF"></path>
                <path d="M28.5428571,20.0571429 L28.8,20.0571429 C29.7941125,20.0571429 30.6,20.8630303 30.6,21.8571429 L30.6,22.3714286 C30.6,23.3655411 29.7941125,24.1714286 28.8,24.1714286 L28.5428571,24.1714286 L28.5428571,20.0571429 Z" id="路径" fill="#8ED420"></path>
                <path d="M11.5714286,21.8571429 C11.5714286,23.4193197 12.8378231,24.6857143 14.4,24.6857143 C15.9621769,24.6857143 17.2285714,23.4193197 17.2285714,21.8571429 C17.2285714,20.294966 15.9621769,19.0285714 14.4,19.0285714 C12.8378231,19.0285714 11.5714286,20.294966 11.5714286,21.8571429 Z" id="路径" fill="#32C4EE"></path>
                <path d="M19.0285714,21.8571429 C19.0285714,22.8676941 19.5676941,23.801482 20.4428571,24.3067577 C21.3180202,24.8120333 22.3962655,24.8120333 23.2714286,24.3067577 C24.1465917,23.801482 24.6857143,22.8676941 24.6857143,21.8571429 C24.6857143,20.8465916 24.1465917,19.9128037 23.2714286,19.4075281 C22.3962655,18.9022524 21.3180202,18.9022524 20.4428571,19.4075281 C19.5676941,19.9128037 19.0285714,20.8465916 19.0285714,21.8571429 L19.0285714,21.8571429 Z" id="路径" fill="#32C4EE"></path>
                <path d="M14.4,21.3428571 C14.4,21.7689054 14.7453803,22.1142857 15.1714286,22.1142857 C15.5974768,22.1142857 15.9428571,21.7689054 15.9428571,21.3428571 C15.9428571,20.9168089 15.5974768,20.5714286 15.1714286,20.5714286 C14.7453803,20.5714286 14.4,20.9168089 14.4,21.3428571 Z" id="路径" fill="#FFFFFF"></path>
                <path d="M21.8571429,21.3428571 C21.8571429,21.7689054 22.2025232,22.1142857 22.6285714,22.1142857 C23.0546197,22.1142857 23.4,21.7689054 23.4,21.3428571 C23.4,20.9168089 23.0546197,20.5714286 22.6285714,20.5714286 C22.2025232,20.5714286 21.8571429,20.9168089 21.8571429,21.3428571 Z" id="路径" fill="#FFFFFF"></path>
                <path d="M16.7142857,11.3142857 C16.7142857,11.7736272 16.9593414,12.1980762 17.3571428,12.427747 C17.7549442,12.6574177 18.2450558,12.6574177 18.6428572,12.427747 C19.0406586,12.1980762 19.2857143,11.7736272 19.2857143,11.3142857 C19.2857143,10.8549442 19.0406586,10.4304952 18.6428572,10.2008244 C18.2450558,9.97115366 17.7549442,9.97115366 17.3571428,10.2008244 C16.9593414,10.4304952 16.7142857,10.8549442 16.7142857,11.3142857 L16.7142857,11.3142857 Z" id="路径" fill="#FF8F44"></path>
            </g>
        </g>
    </g>
</svg>