<?xml version="1.0" standalone="no"?><!DOCTYPE svg PUBLIC "-//W3C//DTD SVG 1.1//EN" "http://www.w3.org/Graphics/SVG/1.1/DTD/svg11.dtd"><svg t="1638954734942" class="icon" viewBox="0 0 1024 1024" version="1.1" xmlns="http://www.w3.org/2000/svg" p-id="5124" xmlns:xlink="http://www.w3.org/1999/xlink" width="48" height="48"><defs><style type="text/css"></style></defs><path d="M882.176 855.04V22.016c0-3.584-3.072-6.656-6.656-6.656h-50.688c-3.584 0-6.656 3.072-6.656 6.656v960.512M656.384 61.44H22.016c-5.12 0-9.216 4.096-9.216 9.216v45.568c0 5.12 4.096 9.216 9.216 9.216h633.856c5.12 0 9.216-4.096 9.216-9.216v-45.568c0.512-5.12-3.584-9.216-8.704-9.216z m0 437.248H22.016c-5.12 0-9.216 4.096-9.216 9.216v45.568c0 5.12 4.096 9.216 9.216 9.216h633.856c5.12 0 9.216-4.096 9.216-9.216v-45.568c0.512-5.12-3.584-9.216-8.704-9.216z m0 416.768H22.016c-5.12 0-9.216 4.096-9.216 9.216v45.568c0 5.12 4.096 9.216 9.216 9.216h633.856c5.12 0 9.216-4.096 9.216-9.216v-45.568c0.512-5.12-3.584-9.216-8.704-9.216z" fill="#333333" p-id="5125"></path><path d="M818.176 835.584v145.92c0 14.336 11.264 25.6 25.6 25.6 8.704 0 16.384-4.096 21.504-11.264l141.824-192.512c7.68-11.776 4.608-27.648-7.168-35.328-6.144-4.096-13.312-5.12-20.48-3.584l-161.28 71.168z" fill="#333333" p-id="5126"></path></svg>