<?xml version="1.0" standalone="no"?><!DOCTYPE svg PUBLIC "-//W3C//DTD SVG 1.1//EN" "http://www.w3.org/Graphics/SVG/1.1/DTD/svg11.dtd"><svg t="1639019596797" class="icon" viewBox="0 0 1024 1024" version="1.1" xmlns="http://www.w3.org/2000/svg" p-id="3793" xmlns:xlink="http://www.w3.org/1999/xlink" width="48" height="48"><defs><style type="text/css"></style></defs><path d="M925.184 1003.194182H182.085818a32.442182 32.442182 0 0 1-32.628363-31.976727V51.2c0-17.594182 14.661818-32.023273 32.628363-32.023273h566.737455l208.989091 224.023273v727.970909a31.930182 31.930182 0 0 1-32.581819 32.023273z" fill="#FFFFFF" p-id="3794"></path><path d="M755.339636 4.794182H182.085818c-26.112 0-47.336727 20.805818-47.336727 46.405818v920.017455c0 25.6 21.224727 46.405818 47.336727 46.405818h743.098182c26.158545 0 47.383273-20.805818 47.383273-46.405818V237.614545L755.339636 4.794182z m-8.145454 32.814545L930.909091 234.402909h-165.748364a17.92 17.92 0 0 1-17.966545-17.594182V37.608727z m177.989818 951.994182H182.085818a17.92 17.92 0 0 1-17.966545-17.594182V51.2c0-9.588364 8.192-17.594182 17.966545-17.594182h535.738182V215.970909c0 25.6 21.178182 46.405818 47.336727 46.405818h178.827637v709.585455c0 8.797091-8.192 17.594182-18.804364 17.594182z" fill="#C0C0C0" p-id="3795"></path><path d="M578.141091 223.185455L82.432 273.594182a32.488727 32.488727 0 0 0-30.161455 32.023273V768c0 16.011636 12.241455 30.394182 29.370182 32.023273l495.709091 47.197091a31.930182 31.930182 0 0 0 35.886546-32.023273V255.208727a32.581818 32.581818 0 0 0-35.095273-32.023272z" fill="#F43D83" p-id="3796"></path><path d="M347.042909 400.011636c-1.629091 32.768-9.774545 62.370909-18.757818 91.973819a19.549091 19.549091 0 0 0 1.629091 15.220363c13.870545 23.970909 30.999273 46.405818 49.803636 67.211637 1.629091 2.373818 6.516364 4.002909 9.774546 4.002909a227.467636 227.467636 0 0 1 76.8 9.588363c12.241455 4.002909 22.807273 10.379636 30.208 20.805818 8.145455 10.379636 9.774545 26.391273 3.258181 35.979637-6.516364 10.426182-22.062545 16.802909-35.141818 13.591273a124.509091 124.509091 0 0 1-28.578909-11.17091c-21.224727-12.008727-38.353455-28.020364-54.690909-45.614545-4.096-4.002909-8.145455-5.585455-13.032727-4.794182-33.512727 4.794182-66.187636 12.008727-98.024727 23.179637a22.807273 22.807273 0 0 0-9.774546 8.005818c-14.708364 17.594182-28.625455 36.026182-44.125091 52.829091-9.774545 10.379636-22.062545 19.176727-37.562182 21.597091-12.241455 1.582545-20.386909-4.002909-21.224727-15.220364-0.837818-12.8 5.725091-23.179636 13.870546-31.976727 16.337455-16.802909 36.770909-27.229091 57.995636-36.817455 0.791273-0.791273 1.629091-0.791273 1.629091-0.791273 17.128727-4.002909 26.949818-14.429091 34.304-28.811636 12.241455-25.6 25.320727-51.2 37.562182-77.591273a24.157091 24.157091 0 0 0 0-15.220363c-9.774545-27.973818-17.175273-54.365091-13.870546-82.385455 0.791273-7.214545 1.629091-13.591273 4.049455-19.223273a27.787636 27.787636 0 0 1 46.545454-6.376727c4.933818 1.582545 7.354182 6.376727 7.354182 12.008727z m13.032727 179.2a2563.258182 2563.258182 0 0 1-42.402909-56.785454c-12.288 23.970909-24.529455 48.779636-37.562182 73.541818 26.903273-4.747636 53.061818-11.170909 80.011637-16.756364z m39.237819 14.429091c0.791273 1.582545 0.791273 3.165091 1.62909 3.165091 15.499636 15.173818 31.837091 30.394182 51.432728 40.029091 4.096 2.327273 9.774545 3.956364 14.708363 3.956364 6.516364 0.791273 13.870545-0.791273 17.175273-7.168 4.049455-7.214545 1.629091-13.637818-3.258182-18.432-6.562909-5.585455-13.917091-11.170909-21.271272-14.429091-10.612364-3.956364-22.016-5.585455-33.512728-7.168a151.272727 151.272727 0 0 1-26.903272 0z m-84.945455-122.414545c0.837818-2.420364 1.629091-3.258182 2.466909-4.049455 4.096-21.597091 7.354182-43.985455 10.612364-65.582545 0.837818-4.002909-3.258182-8.005818-8.983273-7.214546-5.725091 0.837818-8.983273 4.002909-10.612364 9.634909-4.096 21.597091-0.837818 43.985455 6.516364 67.165091zM232.727273 634.414545c-19.595636 7.168-37.562182 16.756364-50.641455 32.768-4.049455 4.002909-5.725091 10.426182-8.145454 15.220364a11.264 11.264 0 0 0 3.258181 2.420364c25.320727-8.843636 40.029091-30.440727 55.528728-50.408728z" fill="#FFFFFF" p-id="3797"></path></svg>