<?xml version="1.0" standalone="no"?><!DOCTYPE svg PUBLIC "-//W3C//DTD SVG 1.1//EN" "http://www.w3.org/Graphics/SVG/1.1/DTD/svg11.dtd"><svg t="1639019629428" class="icon" viewBox="0 0 1024 1024" version="1.1" xmlns="http://www.w3.org/2000/svg" p-id="3938" xmlns:xlink="http://www.w3.org/1999/xlink" width="48" height="48"><defs><style type="text/css"></style></defs><path d="M925.184 1003.194182H182.085818a32.442182 32.442182 0 0 1-32.628363-31.976727V51.2c0-17.594182 14.661818-32.023273 32.628363-32.023273h566.737455l208.989091 224.023273v727.970909a31.930182 31.930182 0 0 1-32.581819 32.023273z" fill="#FFFFFF" p-id="3939"></path><path d="M755.339636 4.794182H182.085818c-26.112 0-47.336727 20.805818-47.336727 46.405818v920.017455c0 25.6 21.224727 46.405818 47.336727 46.405818h743.098182c26.158545 0 47.383273-20.805818 47.383273-46.405818V237.614545L755.339636 4.794182z m-8.145454 32.814545L930.909091 234.402909h-165.748364a17.92 17.92 0 0 1-17.966545-17.594182V37.608727z m177.989818 951.994182H182.085818a17.92 17.92 0 0 1-17.966545-17.594182V51.2c0-9.588364 8.192-17.594182 17.966545-17.594182h535.738182V215.970909c0 25.6 21.178182 46.405818 47.336727 46.405818h178.827637v709.585455c0 8.797091-8.192 17.594182-18.804364 17.594182z" fill="#C0C0C0" p-id="3940"></path><path d="M322.56 457.588364h-26.158545v75.217454h27.787636c31.045818 0 45.707636-14.429091 45.707636-40.029091 0.837818-26.391273-16.290909-35.188364-47.336727-35.188363z" fill="#ED7251" p-id="3941"></path><path d="M578.141091 223.185455L82.432 273.594182a32.488727 32.488727 0 0 0-30.161455 32.023273V768c0 16.011636 12.241455 30.394182 29.370182 32.023273l495.709091 47.197091a31.930182 31.930182 0 0 0 35.886546-32.023273V255.208727a32.581818 32.581818 0 0 0-35.095273-32.023272z m-250.693818 358.4h-31.045818v85.643636H232.727273V408.762182h93.090909c57.995636 0 106.123636 20.014545 106.123636 84.014545 0 61.579636-48.128 88.762182-104.494545 88.762182z" fill="#F46138" p-id="3942"></path></svg>