<?xml version="1.0" encoding="UTF-8"?>
<svg width="36px" height="36px" viewBox="0 0 36 36" version="1.1" xmlns="http://www.w3.org/2000/svg" xmlns:xlink="http://www.w3.org/1999/xlink">
    <title>rentou</title>
    <g id="页面-1" stroke="none" stroke-width="1" fill="none" fill-rule="evenodd">
        <g id="智能机器人有图" transform="translate(-1107.000000, -390.000000)" fill="#AEB9C2" fill-rule="nonzero">
            <g id="编组-4" transform="translate(857.000000, 390.000000)">
                <g id="rentou" transform="translate(250.000000, 0.000000)">
                    <path d="M33.0977702,27.754227 C33.406518,27.1388339 33.7152659,26.7080588 34.0240137,26.0926657 C34.1475129,25.9695871 34.1475129,25.7849692 34.1475129,25.6618906 C34.271012,25.2311155 34.5797599,24.738801 34.7650086,24.3080259 C34.8885077,24.1849472 34.8885077,24.0003293 34.8885077,23.6926328 C35.0120069,23.2618577 35.1972556,22.7695432 35.3207547,22.523386 C35.3207547,22.4003074 35.4442539,22.0926108 35.4442539,21.9079929 C35.567753,21.4772178 35.567753,20.9849033 35.7530017,20.5541282 C35.7530017,20.4310496 35.8765009,20.1233531 35.8765009,19.9387351 C36,19.3233421 36,18.5848704 36,17.9694773 C36,8.06164908 27.8490566,0 17.9691252,0 C8.08919383,0 0,8.06164908 0,17.9694773 C0,18.5848704 0,19.3233421 0.123499142,19.9387351 C0.123499142,20.0618137 0.123499142,20.3695103 0.246998285,20.5541282 C0.246998285,20.9849033 0.370497427,21.4772178 0.370497427,21.9079929 C0.370497427,22.0310715 0.493996569,22.3387681 0.493996569,22.523386 C0.617495712,22.9541611 0.802744425,23.4464756 0.926243568,23.6926328 C0.926243568,23.8157114 1.04974271,24.0003293 1.04974271,24.3080259 C1.17324185,24.738801 1.35849057,25.2311155 1.66723842,25.6618906 C1.66723842,25.7849692 1.79073756,25.9695871 1.79073756,26.0926657 C2.09948542,26.7080588 2.40823328,27.1388339 2.71698113,27.754227 C5.86620926,32.6773715 11.4236707,36.000494 17.7838765,36.000494 C24.1440823,36.000494 29.7632933,32.6773715 33.0977702,27.754227 C32.974271,27.754227 32.974271,27.754227 33.0977702,27.754227 Z M17.9073756,8.55396353 C21.4888508,8.55396353 24.5145798,11.5693895 24.5145798,15.1386693 C24.5145798,18.707949 21.4888508,21.723375 17.9073756,21.723375 C14.3259005,21.723375 11.3001715,18.707949 11.3001715,15.1386693 C11.3001715,11.5693895 14.3259005,8.55396353 17.9073756,8.55396353 Z M6.91595197,29.2311703 C8.89193825,24.8618796 13.0909091,22.0310715 17.9073756,22.0310715 C22.7238422,22.0310715 26.922813,24.8618796 28.8987993,29.2311703 C26.058319,31.9388998 22.1063465,33.7235397 17.9073756,33.7235397 C13.7084048,33.6004611 9.75643225,31.9388998 6.91595197,29.2311703 Z" id="形状"></path>
                </g>
            </g>
        </g>
    </g>
</svg>