<?xml version="1.0" standalone="no"?><!DOCTYPE svg PUBLIC "-//W3C//DTD SVG 1.1//EN" "http://www.w3.org/Graphics/SVG/1.1/DTD/svg11.dtd"><svg t="1638954758975" class="icon" viewBox="0 0 1024 1024" version="1.1" xmlns="http://www.w3.org/2000/svg" p-id="5267" xmlns:xlink="http://www.w3.org/1999/xlink" width="48" height="48"><defs><style type="text/css"></style></defs><path d="M883.2 18.688H139.008c-67.75296 0-122.88 55.12704-122.88 122.88V885.76c0 67.75296 55.12704 122.88 122.88 122.88H883.2c67.75296 0 122.88-55.12704 122.88-122.88V141.568c0-67.75296-55.12704-122.88-122.88-122.88z m-744.192 61.44H883.2c33.87904 0 61.44 27.56096 61.44 61.44v134.62528a30.91968 30.91968 0 0 0-4.05504-0.28672H77.568V141.568c0-33.87904 27.56096-61.44 61.44-61.44zM77.568 885.76V342.46656h652.416V947.2H139.008c-33.87904 0-61.44-27.56096-61.44-61.44z m805.632 61.44h-86.656V342.46656h144.04096c1.38752 0 2.7392-0.11264 4.05504-0.28672V885.76c0 33.87904-27.56096 61.44-61.44 61.44z" fill="#514F50" p-id="5268"></path></svg>