<?xml version="1.0" standalone="no"?><!DOCTYPE svg PUBLIC "-//W3C//DTD SVG 1.1//EN" "http://www.w3.org/Graphics/SVG/1.1/DTD/svg11.dtd"><svg t="1639030830625" class="icon" viewBox="0 0 1024 1024" version="1.1" xmlns="http://www.w3.org/2000/svg" p-id="7125" xmlns:xlink="http://www.w3.org/1999/xlink" width="200" height="200"><defs><style type="text/css"></style></defs><path d="M916.8 1003.2h-728c-17.6 0-32-14.4-32-32v-920c0-17.6 14.4-32 32-32H744l204.8 224v728c0 17.6-13.6 32-32 32z" fill="#FFFFFF" p-id="7126"></path><path d="M750.4 4.8H188.8c-25.6 0-46.4 20.8-46.4 46.4v920c0 25.6 20.8 46.4 46.4 46.4h728c25.6 0 46.4-20.8 46.4-46.4V237.6L750.4 4.8z m-8 32.8l180 196.8H760c-9.6 0-17.6-8-17.6-17.6V37.6z m174.4 952h-728c-9.6 0-17.6-8-17.6-17.6V51.2c0-9.6 8-17.6 17.6-17.6h524.8V216c0 25.6 20.8 46.4 46.4 46.4h175.2V972c0 8.8-8 17.6-18.4 17.6z" fill="#C0C0C0" p-id="7127"></path><path d="M576.8 223.2L91.2 273.6c-16.8 1.6-29.6 15.2-29.6 32V768c0 16 12 30.4 28.8 32L576 847.2c19.2 2.4 35.2-12.8 35.2-32v-560c0-18.4-16-33.6-34.4-32zM433.6 464.8h-72v212.8h-64V464.8h-72.8V412h208v52.8z" fill="#8686F7" p-id="7128"></path></svg>