<?xml version="1.0" standalone="no"?><!DOCTYPE svg PUBLIC "-//W3C//DTD SVG 1.1//EN" "http://www.w3.org/Graphics/SVG/1.1/DTD/svg11.dtd"><svg t="1639030917110" class="icon" viewBox="0 0 1024 1024" version="1.1" xmlns="http://www.w3.org/2000/svg" p-id="7265" xmlns:xlink="http://www.w3.org/1999/xlink" width="200" height="200"><defs><style type="text/css"></style></defs><path d="M925.184 1003.194182H182.085818a32.442182 32.442182 0 0 1-32.628363-31.976727V51.2c0-17.594182 14.661818-32.023273 32.628363-32.023273h566.737455l208.989091 224.023273v727.970909a31.930182 31.930182 0 0 1-32.581819 32.023273z" fill="#FFFFFF" p-id="7266"></path><path d="M755.339636 4.794182H182.085818c-26.112 0-47.336727 20.805818-47.336727 46.405818v920.017455c0 25.6 21.224727 46.405818 47.336727 46.405818h743.098182c26.158545 0 47.383273-20.805818 47.383273-46.405818V237.614545L755.339636 4.794182z m-8.145454 32.814545L930.909091 234.402909h-165.748364a17.92 17.92 0 0 1-17.966545-17.594182V37.608727z m177.989818 951.994182H182.085818a17.92 17.92 0 0 1-17.966545-17.594182V51.2c0-9.588364 8.192-17.594182 17.966545-17.594182h535.738182V215.970909c0 25.6 21.178182 46.405818 47.336727 46.405818h178.827637v709.585455c0 8.797091-8.192 17.594182-18.804364 17.594182z" fill="#C0C0C0" p-id="7267"></path><path d="M578.141091 223.185455L82.432 273.594182a32.488727 32.488727 0 0 0-30.161455 32.023273V768c0 16.011636 12.241455 30.394182 29.370182 32.023273l495.709091 47.197091a31.930182 31.930182 0 0 0 35.886546-32.023273V255.208727a32.581818 32.581818 0 0 0-35.095273-32.023272z m-138.007273 444.043636h-80.058182l-23.645091-112.826182c-4.096-20.014545-8.145455-40.820364-10.612363-60.043636h-1.629091c-3.258182 19.223273-6.516364 40.029091-10.612364 60.043636l-22.853818 112.779636H212.247273L164.119273 408.017455H229.469091l16.290909 118.36509 10.658909 82.385455h1.629091c4.887273-27.182545 10.612364-55.156364 15.499636-82.385455l26.996364-118.36509h53.061818l27.741091 118.36509c5.725091 26.437818 9.774545 54.458182 15.499636 82.385455h1.629091c3.258182-27.927273 6.516364-55.156364 9.774546-82.385455l17.221818-118.36509h60.416l-45.754182 259.16509z" fill="#3091F2" p-id="7268"></path></svg>