<?xml version="1.0" encoding="UTF-8"?>
<svg width="48px" height="40px" viewBox="0 0 48 40" version="1.1" xmlns="http://www.w3.org/2000/svg" xmlns:xlink="http://www.w3.org/1999/xlink">
    <title>zhidongxiguzhang</title>
    <g id="页面-1" stroke="none" stroke-width="1" fill="none" fill-rule="evenodd">
        <g id="归因分析" transform="translate(-288.000000, -460.000000)" fill-rule="nonzero">
            <g id="zhidongxiguzhang" transform="translate(288.000000, 460.000000)">
                <path d="M7.29101541,21.1382575 C7.29101541,31.4258649 15.6307691,39.7656186 25.9183765,39.7656186 C36.205984,39.7656186 44.5457377,31.4258649 44.5457377,21.1382575 C44.5457377,10.85065 36.205984,2.51089634 25.9183765,2.51089634 C15.6307691,2.51089634 7.29101541,10.85065 7.29101541,21.1382575 Z" id="路径" fill="#F5222D"></path>
                <path d="M24.2160082,38.6856423 C13.5504183,38.6856423 4.87318702,30.008411 4.87318702,19.3428211 C4.87318702,8.67723132 13.5504183,0 24.2160082,0 C34.8817919,0 43.5588293,8.67723132 43.5588293,19.3428211 C43.5588293,30.008411 34.8817919,38.6856423 24.2160082,38.6856423 Z M24.2160082,1.47726018 C14.364957,1.47726018 6.35064111,9.4915761 6.35064111,19.3426272 C6.35064111,29.1936784 14.364957,37.2081882 24.2160082,37.2081882 C34.0670593,37.2081882 42.0815691,29.1936784 42.0815691,19.3426272 C42.0815691,9.49176996 34.0670593,1.47726018 24.2160082,1.47726018 Z" id="形状" fill-opacity="0.65" fill="#000000"></path>
                <path d="M24.0401485,30.4613418 C23.5015176,30.4613418 23.0509135,30.2854821 22.6881423,29.9281398 C22.3309939,29.5653687 22.1495114,29.1147645 22.1495114,28.5761336 C22.1495114,28.0429317 22.3309939,27.5923276 22.6881423,27.2295564 C23.0509135,26.872408 23.5015176,26.6911194 24.0401485,26.6911194 C24.5733504,26.6911194 25.0239545,26.8726019 25.3867257,27.2295564 C25.7438741,27.5923276 25.9251627,28.0429317 25.9251627,28.5761336 C25.9251627,29.1145706 25.7436802,29.5653686 25.3867257,29.9281398 C25.0239545,30.2854821 24.5733504,30.4613418 24.0401485,30.4613418 Z M24.5733504,21.4256048 L24.5733504,22.7832339 L23.5015176,22.7832339 L23.5015176,21.4256048 C23.5015176,18.9909079 23.3477615,16.5341072 23.0344327,14.0555908 C22.7211038,11.5768804 22.5671539,9.74673749 22.5671539,8.5760199 C22.5671539,7.85610036 22.6770905,7.28993683 22.9023925,6.8887751 C23.1278884,6.47656155 23.5015176,6.27879206 24.0401485,6.27879206 C24.6611833,6.27879206 25.0623451,6.50409413 25.2438276,6.95489213 C25.4196873,7.40006729 25.5075202,7.94412712 25.5075202,8.57621381 C25.5075202,9.74693135 25.3537641,11.5770743 25.0404353,14.0557846 C24.7302401,16.5001556 24.5742366,18.9616305 24.5733504,21.4256048 L24.5733504,21.4256048 Z" id="形状" fill="#332C2B"></path>
                <path d="M24.0401485,31.1998749 C23.3014214,31.1998749 22.6720492,30.9491731 22.16987,30.4543617 C21.663619,29.940355 21.4107843,29.3109828 21.4107843,28.5759398 C21.4107843,27.8548569 21.6704052,27.2099733 22.1617265,26.7110902 C22.6759271,26.2048392 23.3051054,25.9521984 24.0401485,25.9521984 C24.7612313,25.9521984 25.4061149,26.2118193 25.904998,26.7029468 C26.4042689,27.2099733 26.6638898,27.8548569 26.6638898,28.5759398 C26.6638898,29.310789 26.411249,29.9399672 25.9131414,30.4462182 C25.4028187,30.949173 24.7753855,31.1998749 24.0401485,31.1998749 Z M24.0401485,27.4296525 C23.6973481,27.4296525 23.4324922,27.5333845 23.2064146,27.7559721 C22.9919704,27.9739062 22.8882384,28.2370172 22.8882384,28.5761336 C22.8882384,28.918934 22.9919704,29.1837899 23.214558,29.4098676 C23.4288082,29.6206278 23.6936642,29.7226147 24.0401485,29.7226147 C24.3831427,29.7226147 24.6462536,29.6206277 24.8682596,29.4017241 C25.0827037,29.18379 25.1866296,28.918934 25.1866296,28.5761336 C25.1866296,28.2370172 25.0828975,27.9739062 24.86031,27.7478286 C24.6423758,27.5333845 24.3792649,27.4296525 24.0401485,27.4296525 Z M25.3118836,23.5219609 L22.7627905,23.5219609 L22.7627905,21.4256048 C22.7627905,19.0184404 22.6076772,16.5699772 22.3015224,14.1480771 C21.9876119,11.6645194 21.8284269,9.78978143 21.8284269,8.57582599 C21.8284269,7.71203886 21.9689983,7.04194945 22.2582846,6.52677945 C22.5022002,6.08044094 23.0134924,5.53967725 24.0399546,5.53967725 C25.2847387,5.53967725 25.7576404,6.25339227 25.9288467,6.67879049 C26.1399946,7.21276799 26.2460533,7.84970194 26.2460533,8.57582599 C26.2460533,9.79094473 26.0870622,11.6656827 25.7733456,14.1480771 C25.4676203,16.5618302 25.3134974,18.9923739 25.3118836,21.425411 L25.3118836,23.5219609 L25.3118836,23.5219609 Z M24.0401485,7.01732524 C23.6740811,7.01732524 23.602729,7.14781431 23.5505722,7.24320894 C23.4367578,7.44582569 23.305881,7.83457834 23.305881,8.5760199 C23.305881,9.72812385 23.4611881,11.5406226 23.7671491,13.9631045 C23.8758677,14.822898 23.9659192,15.684949 24.0372401,16.5486491 C24.1087861,15.6852498 24.1987518,14.822626 24.3073311,13.9631045 C24.613486,11.5419799 24.7687932,9.72967501 24.7687932,8.57621381 C24.7687932,8.03661347 24.6974411,7.58251928 24.5566757,7.22653428 C24.5283676,7.15595771 24.4727206,7.01732524 24.0401485,7.01732524 L24.0401485,7.01732524 Z" id="形状" fill="#332C2B"></path>
                <path d="M7.28442308,36.838243 C-2.117769,25.165774 -2.41965824,13.3816235 6.38709271,1.81366214 L7.56265756,2.70847191 C-0.896639604,13.8202063 -0.611231166,24.6808511 8.43497591,35.911635 L7.28442308,36.838243 Z M42.5942186,36.3221036 L41.3422604,35.5374242 C48.3543506,24.3500721 48.2143609,13.5993638 40.9143416,2.67124472 L42.1428389,1.85069543 C49.8003942,13.3137615 49.9479458,24.5895282 42.5942186,36.3221036 Z" id="形状" fill-opacity="0.65" fill="#000000"></path>
            </g>
        </g>
    </g>
</svg>