<?xml version="1.0" encoding="UTF-8"?>
<svg width="144px" height="119px" viewBox="0 0 144 119" version="1.1" xmlns="http://www.w3.org/2000/svg" xmlns:xlink="http://www.w3.org/1999/xlink">
    <title>Group</title>
    <defs>
        <linearGradient x1="50%" y1="3.85205925%" x2="50%" y2="121.56033%" id="linearGradient-1">
            <stop stop-color="#779EEA" stop-opacity="0.4" offset="0%"></stop>
            <stop stop-color="#FFFFFF" stop-opacity="0" offset="100%"></stop>
        </linearGradient>
    </defs>
    <g id="页面-1" stroke="none" stroke-width="1" fill="none" fill-rule="evenodd">
        <g id="智能问答-欢迎语" transform="translate(-1547.000000, -388.000000)">
            <g id="编组-5" transform="translate(1493.000000, 371.000000)">
                <g id="Group-13" transform="translate(54.000000, 0.000000)">
                    <g id="Group" transform="translate(0.000000, 17.000000)">
                        <path d="M72,83 C106.372614,83 135.319819,98.9978546 143.9999,118.999771 L9.95177594e-05,118.999771 C8.68018075,98.9978546 37.6273857,83 72,83 Z" id="Combined-Shape" fill="url(#linearGradient-1)"></path>
                        <g transform="translate(37.000000, 43.000000)">
                            <path d="M0.460962271,20.0342721 L15.5878842,1.80687959 C16.5378053,0.662259174 17.9480291,-1.50311681e-15 19.4354786,0 L51.4395208,0 C52.916024,-3.82394292e-15 54.3170329,0.65258865 55.2670558,1.78286221 L70.531014,19.9428972 C70.8339267,20.3032824 71,20.7589726 71,21.2297523 L71,38.5254664 L71,38.5254664 L0,39 L0,21.3115203 C3.05149732e-15,20.8450417 0.163057818,20.3932362 0.460962271,20.0342721 Z" id="Path-2" fill="#FFFFFF"></path>
                            <path d="M0.497432218,20.0234655 L16.5939267,1.70010411 C17.5432355,0.619463376 18.9119542,1.15240674e-15 20.3503462,0 L51.4395208,0 C52.916024,-3.12967906e-16 54.3170329,0.65258865 55.2670558,1.78286221 L70.531014,19.9428972 C70.8339267,20.3032824 71,20.7589726 71,21.2297523 L71,38.5254664 L71,38.5254664 L0,39 L0,21.3434239 C2.57981256e-15,20.857627 0.176816364,20.388437 0.497432218,20.0234655 Z" id="Path-2" stroke="#779EEA" stroke-width="2"></path>
                            <path d="M0,21 L0,47 C4.05812251e-16,50.3137085 2.6862915,53 6,53 L65,53 C68.3137085,53 71,50.3137085 71,47 L71,21 C71,20.4477153 70.5522847,20 70,20 L55.2035967,20 C53.5467425,20 52.2035967,21.3431458 52.2035967,23 L52.2035967,27.3544191 C52.2035967,28.4589886 51.3081662,29.3544191 50.2035967,29.3544191 L23.103271,29.3544191 C21.9987015,29.3544191 21.103271,28.4589886 21.103271,27.3544191 L21.103271,23 C21.103271,21.3431458 19.7601252,20 18.103271,20 L1,20 C0.44771525,20 -1.78657678e-16,20.4477153 0,21 Z" id="Path" fill="#F8FAFE"></path>
                            <path d="M0,21 L0,47 C4.05812251e-16,50.3137085 2.6862915,53 6,53 L65,53 C68.3137085,53 71,50.3137085 71,47 L71,21 C71,20.4477153 70.5522847,20 70,20 L56.2035967,20 C53.9944577,20 52.2035967,21.790861 52.2035967,24 L52.2035967,25.3544191 C52.2035967,27.5635581 50.4127357,29.3544191 48.2035967,29.3544191 L25.103271,29.3544191 C22.894132,29.3544191 21.103271,27.5635581 21.103271,25.3544191 L21.103271,24 C21.103271,21.790861 19.31241,20 17.103271,20 L1,20 C0.44771525,20 -1.78657678e-16,20.4477153 0,21 Z" id="Path" stroke="#779EEA" stroke-width="2"></path>
                        </g>
                        <g id="Group-12" transform="translate(9.000000, 0.000000)">
                            <path d="M30.3891168,34.0544444 C29.2772784,36.963302 27.8697276,39.033805 26.1664643,40.2659532" id="Path-18" stroke="#8DA5E6" transform="translate(28.277791, 37.160199) rotate(-104.000000) translate(-28.277791, -37.160199) "></path>
                            <path d="M30.8815686,37.4264075 C30.0925305,39.4907361 29.0936341,40.9601096 27.8848795,41.834528" id="Path-18-Copy" stroke="#8DA5E6" transform="translate(29.383224, 39.630468) rotate(-102.000000) translate(-29.383224, -39.630468) "></path>
                            <polygon id="Shape" fill="#779EEA" fill-rule="nonzero" transform="translate(18.170177, 34.846432) rotate(-22.000000) translate(-18.170177, -34.846432) " points="22.099249 40.705253 18.1317288 38.6821289 14.1330836 40.6503265 14.9258553 36.4264829 11.7254745 33.4091902 16.1836709 32.8233082 18.2049641 28.9876114 20.167669 32.8489405 24.6148802 33.4970726 21.3705582 36.4704241"></polygon>
                            <path d="M101.026415,20.1848135 C99.9145769,23.0936712 98.5070261,25.1641741 96.8037628,26.3963223" id="Path-18" stroke="#8DA5E6" transform="translate(98.915089, 23.290568) scale(-1, 1) rotate(-95.000000) translate(-98.915089, -23.290568) "></path>
                            <path d="M99.708045,23.6992914 C98.9190068,25.76362 97.9201104,27.2329935 96.7113558,28.1074119" id="Path-18-Copy" stroke="#8DA5E6" transform="translate(98.209700, 25.903352) scale(-1, 1) rotate(-93.000000) translate(-98.209700, -25.903352) "></path>
                            <polygon id="Shape-Copy" fill="#779EEA" fill-rule="nonzero" transform="translate(109.501719, 19.597501) rotate(85.000000) translate(-109.501719, -19.597501) " points="113.469379 25.513864 109.462892 23.4708701 105.424975 25.4583981 106.225533 21.1930705 102.99372 18.1461438 107.495702 17.5545075 109.536847 13.681139 111.518828 17.5803916 116.009717 18.2348892 112.733532 21.2374432"></polygon>
                            <path d="M98.0803294,36.4024674 C96.968491,39.311325 95.5609402,41.381828 93.8576769,42.6139762" id="Path-18" stroke="#DDE4F8" transform="translate(95.969003, 39.508222) scale(-1, 1) rotate(-125.000000) translate(-95.969003, -39.508222) "></path>
                            <path d="M95.5500714,39.2142044 C94.7610332,41.2785329 93.7621369,42.7479064 92.5533822,43.6223248" id="Path-18-Copy" stroke="#DDE4F8" transform="translate(94.051727, 41.418265) scale(-1, 1) rotate(-123.000000) translate(-94.051727, -41.418265) "></path>
                            <polygon id="Shape-Copy-4" fill-opacity="0.3" fill="#779EEA" fill-rule="nonzero" transform="translate(106.005681, 40.766571) rotate(-32.000000) translate(-106.005681, -40.766571) " points="109.934752 46.6253919 105.967232 44.6022678 101.968587 46.5704654 102.761359 42.3466218 99.5609779 39.3293291 104.019174 38.7434471 106.040468 34.9077503 108.003173 38.7690794 112.450384 39.4172114 109.206062 42.390563"></polygon>
                            <path d="M24.7187407,49.5468866 C23.8267596,51.8833405 22.6975409,53.5464107 21.3310845,54.5360972" id="Path-18" stroke="#DDE4F8" transform="translate(23.024913, 52.041492) rotate(-137.000000) translate(-23.024913, -52.041492) "></path>
                            <path d="M26.0504883,51.4498215 C25.4174763,53.1079323 24.6161038,54.2881631 23.6463709,54.9905138" id="Path-18-Copy" stroke="#DDE4F8" transform="translate(24.848430, 53.220168) rotate(-135.000000) translate(-24.848430, -53.220168) "></path>
                            <polygon id="Shape-Copy-6" fill-opacity="0.3" fill="#779EEA" fill-rule="nonzero" transform="translate(15.909091, 55.500000) rotate(-270.000000) translate(-15.909091, -55.500000) " points="18.6525568 59.5909091 15.8822443 58.178267 13.0901989 59.5525568 13.64375 56.603267 11.4090909 54.4964489 14.522017 54.087358 15.9333807 51.4090909 17.3038352 54.1052557 20.4090909 54.5578125 18.14375 56.6339489"></polygon>
                            <polygon id="Shape-Copy-2" fill-opacity="0.3" fill="#779EEA" fill-rule="nonzero" transform="translate(15.711954, 20.070775) rotate(-272.000000) translate(-15.711954, -20.070775) " points="18.1972183 23.7766678 15.6876341 22.4969768 13.1583624 23.7419251 13.659816 21.0702081 11.6354721 19.1616734 14.4554248 18.7910841 15.7339578 16.3648825 16.9754318 18.8072974 19.7884359 19.2172618 17.7362979 21.0980023"></polygon>
                            <polygon id="Shape-Copy-3" fill-opacity="0.3" fill="#779EEA" fill-rule="nonzero" transform="translate(87.000000, 3.300000) rotate(-270.000000) translate(-87.000000, -3.300000) " points="89.011875 6.3 86.9803125 5.2640625 84.9328125 6.271875 85.33875 4.1090625 83.7 2.5640625 85.9828125 2.2640625 87.0178125 0.3 88.0228125 2.2771875 90.3 2.6090625 88.63875 4.1315625"></polygon>
                            <polygon id="Shape-Copy-5" fill-opacity="0.3" fill="#779EEA" fill-rule="nonzero" transform="translate(112.045455, 66.650000) rotate(-270.000000) translate(-112.045455, -66.650000) " points="114.697472 70.6045455 112.019503 69.2389915 109.320526 70.5674716 109.855625 67.7164915 107.695455 65.6799006 110.704616 65.284446 112.068935 62.6954545 113.393707 65.3017472 116.395455 65.7392187 114.205625 67.7461506"></polygon>
                            <circle id="Oval-7" stroke="#779EEA" cx="2" cy="40" r="2"></circle>
                            <circle id="Oval-7-Copy" stroke="#779EEA" cx="115" cy="7" r="2"></circle>
                            <circle id="Oval-7-Copy-2" stroke="#779EEA" cx="124" cy="46" r="2"></circle>
                            <circle id="Oval-7-Copy-3" stroke="#779EEA" cx="40.5" cy="3.5" r="2.5"></circle>
                        </g>
                        <rect id="Rectangle-3" fill="#779EEA" x="70" y="13.029973" width="2.2" height="16" rx="1.1"></rect>
                        <rect id="Rectangle-3-Copy" fill="#779EEA" transform="translate(87.420027, 27.500000) rotate(-315.000000) translate(-87.420027, -27.500000) " x="86.320027" y="19.5" width="2.2" height="16" rx="1.1"></rect>
                        <rect id="Rectangle-3-Copy-2" fill="#779EEA" transform="translate(54.420027, 27.500000) scale(-1, 1) rotate(-315.000000) translate(-54.420027, -27.500000) " x="53.320027" y="19.5" width="2.2" height="16" rx="1.1"></rect>
                    </g>
                </g>
            </g>
        </g>
    </g>
</svg>