<?xml version="1.0" encoding="UTF-8"?>
<svg width="48px" height="48px" viewBox="0 0 48 48" version="1.1" xmlns="http://www.w3.org/2000/svg" xmlns:xlink="http://www.w3.org/1999/xlink">
    <title>guzhang</title>
    <g id="页面-1" stroke="none" stroke-width="1" fill="none" fill-rule="evenodd">
        <g id="归因分析" transform="translate(-288.000000, -288.000000)" fill-rule="nonzero">
            <g id="编组-9" transform="translate(272.000000, 216.000000)">
                <g id="编组-8" transform="translate(0.000000, 72.000000)">
                    <g id="guzhang" transform="translate(16.000000, 0.000000)">
                        <path d="M0,24 C0,32.5743742 4.574374,40.4974228 12,44.78461 C19.4256258,49.0717971 28.5743742,49.0717971 36,44.78461 C43.425626,40.4974228 48,32.5743742 48,24 C48,10.745166 37.254834,0 24,0 C10.745166,0 0,10.745166 0,24 Z" id="路径" fill="#FAAD14" opacity="0.601911272"></path>
                        <path d="M28.9973333,24.864 L27.4933333,26.384 L26.3946667,25.408 L25.0613333,24.1173333 L27.4506667,21.5626667 C30.1333333,22.7306667 32.9173333,22.256 34.7893333,20.6346667 C36.6293333,19.04 36.6293333,15.8986667 36.6293333,15.8986667 L35.1573333,15.3226667 L32.3253333,18.1866667 L28.1973333,14.096 L31.0453333,11.2106667 L30.464,9.744 C30.464,9.744 27.6106667,9.744 25.712,11.632 C23.9466667,13.3866667 23.3866667,16.2666667 24.6293333,18.8746667 L22.1493333,21.296 L18.5813333,17.8346667 L18.368,15.408 L15.0293333,13.2533333 L14.0853333,14.1973333 L13.1466667,15.1413333 L12.2026667,16.0853333 L14.352,19.4346667 L16.624,19.632 L20.2826667,23.12 L10.9333333,32.24 C10.9333333,32.24 10.6613333,33.9146667 11.7546667,35.008 C12.6346667,35.888 14.2346667,35.7066667 14.2346667,35.7066667 L23.3066667,26 L24.624,27.2533333 L25.6,28.224 L23.728,30.1493333 C26.416,32.8373333 29.104,35.5306667 31.7866667,38.224 C34.5546667,37.4773333 36.1493333,35.5573333 37.056,32.944 C34.3733333,30.2506667 31.6853333,27.5573333 28.9973333,24.864 M14.4533333,33.7173333 C14.0213333,34.1493333 13.3226667,34.1546667 12.8853333,33.7226667 C12.4533333,33.2906667 12.448,32.5866667 12.88,32.1493333 C13.312,31.712 14.0106667,31.7066667 14.448,32.1386667 C14.88,32.5813333 14.8853333,33.28 14.4533333,33.7173333 M32.0266667,36.1493333 L25.9146667,30.0266667 L26.8213333,29.12 L33.152,35.4613333 L32.0266667,36.1493333 M34.1813333,34.4266667 L27.8506667,28.0853333 L28.7573333,27.1733333 L34.8693333,33.296 L34.1813333,34.4266667" id="形状" fill="#AF8B44"></path>
                    </g>
                </g>
            </g>
        </g>
    </g>
</svg>